<svg xmlns="http://www.w3.org/2000/svg" version="1.1" xmlns:xlink="http://www.w3.org/1999/xlink" xmlns:svgjs="http://svgjs.com/svgjs" width="1440" height="560" preserveAspectRatio="none" viewBox="0 0 1440 560"><g mask="url(&quot;#SvgjsMask3808&quot;)" fill="none"><rect width="1440" height="560" x="0" y="0" fill="url(#SvgjsLinearGradient3809)"></rect><path d="M148.52 -36.12L209.14 -1.12L209.14 68.88L148.52 103.88L87.89 68.88L87.89 -1.12zM269.76 -36.12L330.39 -1.12L330.39 68.88L269.76 103.88L209.14 68.88L209.14 -1.12zM391.01 173.88L451.63 208.88L451.63 278.88L391.01 313.88L330.39 278.88L330.39 208.88zM451.63 488.88L512.26 523.88L512.26 593.88L451.63 628.88L391.01 593.88L391.01 523.88zM512.26 -36.12L572.88 -1.12L572.88 68.88L512.26 103.88L451.63 68.88L451.63 -1.12zM572.88 278.88L633.5 313.88L633.5 383.88L572.88 418.88L512.26 383.88L512.26 313.88zM694.13 68.88L754.75 103.88L754.75 173.88L694.13 208.88L633.5 173.88L633.5 103.88zM815.38 68.88L876 103.88L876 173.88L815.38 208.88L754.75 173.88L754.75 103.88zM815.38 278.88L876 313.88L876 383.88L815.38 418.88L754.75 383.88L754.75 313.88zM876 -36.12L936.62 -1.12L936.62 68.88L876 103.88L815.38 68.88L815.38 -1.12zM936.62 278.88L997.25 313.88L997.25 383.88L936.62 418.88L876 383.88L876 313.88zM997.25 383.88L1057.87 418.88L1057.87 488.88L997.25 523.88L936.62 488.88L936.62 418.88zM1057.87 488.88L1118.49 523.88L1118.49 593.88L1057.87 628.88L997.25 593.88L997.25 523.88zM1118.49 173.88L1179.12 208.88L1179.12 278.88L1118.49 313.88L1057.87 278.88L1057.87 208.88zM1239.74 173.88L1300.36 208.88L1300.36 278.88L1239.74 313.88L1179.12 278.88L1179.12 208.88zM1360.99 -36.12L1421.61 -1.12L1421.61 68.88L1360.99 103.88L1300.36 68.88L1300.36 -1.12z" stroke="#03305d" stroke-width="2"></path><path d="M141.52 -36.12 a7 7 0 1 0 14 0 a7 7 0 1 0 -14 0zM202.14 -1.12 a7 7 0 1 0 14 0 a7 7 0 1 0 -14 0zM202.14 68.88 a7 7 0 1 0 14 0 a7 7 0 1 0 -14 0zM141.52 103.88 a7 7 0 1 0 14 0 a7 7 0 1 0 -14 0zM80.89 68.88 a7 7 0 1 0 14 0 a7 7 0 1 0 -14 0zM80.89 -1.12 a7 7 0 1 0 14 0 a7 7 0 1 0 -14 0zM262.76 -36.12 a7 7 0 1 0 14 0 a7 7 0 1 0 -14 0zM323.39 -1.12 a7 7 0 1 0 14 0 a7 7 0 1 0 -14 0zM323.39 68.88 a7 7 0 1 0 14 0 a7 7 0 1 0 -14 0zM262.76 103.88 a7 7 0 1 0 14 0 a7 7 0 1 0 -14 0zM384.01 173.88 a7 7 0 1 0 14 0 a7 7 0 1 0 -14 0zM444.63 208.88 a7 7 0 1 0 14 0 a7 7 0 1 0 -14 0zM444.63 278.88 a7 7 0 1 0 14 0 a7 7 0 1 0 -14 0zM384.01 313.88 a7 7 0 1 0 14 0 a7 7 0 1 0 -14 0zM323.39 278.88 a7 7 0 1 0 14 0 a7 7 0 1 0 -14 0zM323.39 208.88 a7 7 0 1 0 14 0 a7 7 0 1 0 -14 0zM444.63 488.88 a7 7 0 1 0 14 0 a7 7 0 1 0 -14 0zM505.26 523.88 a7 7 0 1 0 14 0 a7 7 0 1 0 -14 0zM505.26 593.88 a7 7 0 1 0 14 0 a7 7 0 1 0 -14 0zM444.63 628.88 a7 7 0 1 0 14 0 a7 7 0 1 0 -14 0zM384.01 593.88 a7 7 0 1 0 14 0 a7 7 0 1 0 -14 0zM384.01 523.88 a7 7 0 1 0 14 0 a7 7 0 1 0 -14 0zM505.26 -36.12 a7 7 0 1 0 14 0 a7 7 0 1 0 -14 0zM565.88 -1.12 a7 7 0 1 0 14 0 a7 7 0 1 0 -14 0zM565.88 68.88 a7 7 0 1 0 14 0 a7 7 0 1 0 -14 0zM505.26 103.88 a7 7 0 1 0 14 0 a7 7 0 1 0 -14 0zM444.63 68.88 a7 7 0 1 0 14 0 a7 7 0 1 0 -14 0zM444.63 -1.12 a7 7 0 1 0 14 0 a7 7 0 1 0 -14 0zM565.88 278.88 a7 7 0 1 0 14 0 a7 7 0 1 0 -14 0zM626.5 313.88 a7 7 0 1 0 14 0 a7 7 0 1 0 -14 0zM626.5 383.88 a7 7 0 1 0 14 0 a7 7 0 1 0 -14 0zM565.88 418.88 a7 7 0 1 0 14 0 a7 7 0 1 0 -14 0zM505.26 383.88 a7 7 0 1 0 14 0 a7 7 0 1 0 -14 0zM505.26 313.88 a7 7 0 1 0 14 0 a7 7 0 1 0 -14 0zM687.13 68.88 a7 7 0 1 0 14 0 a7 7 0 1 0 -14 0zM747.75 103.88 a7 7 0 1 0 14 0 a7 7 0 1 0 -14 0zM747.75 173.88 a7 7 0 1 0 14 0 a7 7 0 1 0 -14 0zM687.13 208.88 a7 7 0 1 0 14 0 a7 7 0 1 0 -14 0zM626.5 173.88 a7 7 0 1 0 14 0 a7 7 0 1 0 -14 0zM626.5 103.88 a7 7 0 1 0 14 0 a7 7 0 1 0 -14 0zM808.38 68.88 a7 7 0 1 0 14 0 a7 7 0 1 0 -14 0zM869 103.88 a7 7 0 1 0 14 0 a7 7 0 1 0 -14 0zM869 173.88 a7 7 0 1 0 14 0 a7 7 0 1 0 -14 0zM808.38 208.88 a7 7 0 1 0 14 0 a7 7 0 1 0 -14 0zM808.38 278.88 a7 7 0 1 0 14 0 a7 7 0 1 0 -14 0zM869 313.88 a7 7 0 1 0 14 0 a7 7 0 1 0 -14 0zM869 383.88 a7 7 0 1 0 14 0 a7 7 0 1 0 -14 0zM808.38 418.88 a7 7 0 1 0 14 0 a7 7 0 1 0 -14 0zM747.75 383.88 a7 7 0 1 0 14 0 a7 7 0 1 0 -14 0zM747.75 313.88 a7 7 0 1 0 14 0 a7 7 0 1 0 -14 0zM869 -36.12 a7 7 0 1 0 14 0 a7 7 0 1 0 -14 0zM929.62 -1.12 a7 7 0 1 0 14 0 a7 7 0 1 0 -14 0zM929.62 68.88 a7 7 0 1 0 14 0 a7 7 0 1 0 -14 0zM808.38 -1.12 a7 7 0 1 0 14 0 a7 7 0 1 0 -14 0zM929.62 278.88 a7 7 0 1 0 14 0 a7 7 0 1 0 -14 0zM990.25 313.88 a7 7 0 1 0 14 0 a7 7 0 1 0 -14 0zM990.25 383.88 a7 7 0 1 0 14 0 a7 7 0 1 0 -14 0zM929.62 418.88 a7 7 0 1 0 14 0 a7 7 0 1 0 -14 0zM1050.87 418.88 a7 7 0 1 0 14 0 a7 7 0 1 0 -14 0zM1050.87 488.88 a7 7 0 1 0 14 0 a7 7 0 1 0 -14 0zM990.25 523.88 a7 7 0 1 0 14 0 a7 7 0 1 0 -14 0zM929.62 488.88 a7 7 0 1 0 14 0 a7 7 0 1 0 -14 0zM1111.49 523.88 a7 7 0 1 0 14 0 a7 7 0 1 0 -14 0zM1111.49 593.88 a7 7 0 1 0 14 0 a7 7 0 1 0 -14 0zM1050.87 628.88 a7 7 0 1 0 14 0 a7 7 0 1 0 -14 0zM990.25 593.88 a7 7 0 1 0 14 0 a7 7 0 1 0 -14 0zM1111.49 173.88 a7 7 0 1 0 14 0 a7 7 0 1 0 -14 0zM1172.12 208.88 a7 7 0 1 0 14 0 a7 7 0 1 0 -14 0zM1172.12 278.88 a7 7 0 1 0 14 0 a7 7 0 1 0 -14 0zM1111.49 313.88 a7 7 0 1 0 14 0 a7 7 0 1 0 -14 0zM1050.87 278.88 a7 7 0 1 0 14 0 a7 7 0 1 0 -14 0zM1050.87 208.88 a7 7 0 1 0 14 0 a7 7 0 1 0 -14 0zM1232.74 173.88 a7 7 0 1 0 14 0 a7 7 0 1 0 -14 0zM1293.36 208.88 a7 7 0 1 0 14 0 a7 7 0 1 0 -14 0zM1293.36 278.88 a7 7 0 1 0 14 0 a7 7 0 1 0 -14 0zM1232.74 313.88 a7 7 0 1 0 14 0 a7 7 0 1 0 -14 0zM1353.99 -36.12 a7 7 0 1 0 14 0 a7 7 0 1 0 -14 0zM1414.61 -1.12 a7 7 0 1 0 14 0 a7 7 0 1 0 -14 0zM1414.61 68.88 a7 7 0 1 0 14 0 a7 7 0 1 0 -14 0zM1353.99 103.88 a7 7 0 1 0 14 0 a7 7 0 1 0 -14 0zM1293.36 68.88 a7 7 0 1 0 14 0 a7 7 0 1 0 -14 0zM1293.36 -1.12 a7 7 0 1 0 14 0 a7 7 0 1 0 -14 0z" fill="#03305d"></path><path d="M17.06 115.4L54.3 136.9L54.3 179.9L17.06 201.4L-20.18 179.9L-20.18 136.9zM54.3 566.9L91.54 588.4L91.54 631.4L54.3 652.9L17.06 631.4L17.06 588.4zM91.54 -13.6L128.78 7.9L128.78 50.9L91.54 72.4L54.3 50.9L54.3 7.9zM91.54 115.4L128.78 136.9L128.78 179.9L91.54 201.4L54.3 179.9L54.3 136.9zM128.78 566.9L166.02 588.4L166.02 631.4L128.78 652.9L91.54 631.4L91.54 588.4zM277.74 308.9L314.98 330.4L314.98 373.4L277.74 394.9L240.5 373.4L240.5 330.4zM314.98 -13.6L352.22 7.9L352.22 50.9L314.98 72.4L277.74 50.9L277.74 7.9zM352.22 437.9L389.46 459.4L389.46 502.4L352.22 523.9L314.98 502.4L314.98 459.4zM463.94 502.4L501.18 523.9L501.18 566.9L463.94 588.4L426.7 566.9L426.7 523.9zM501.18 566.9L538.42 588.4L538.42 631.4L501.18 652.9L463.94 631.4L463.94 588.4zM538.42 115.4L575.66 136.9L575.66 179.9L538.42 201.4L501.18 179.9L501.18 136.9zM575.66 437.9L612.9 459.4L612.9 502.4L575.66 523.9L538.42 502.4L538.42 459.4zM612.9 373.4L650.14 394.9L650.14 437.9L612.9 459.4L575.66 437.9L575.66 394.9zM687.38 115.4L724.62 136.9L724.62 179.9L687.38 201.4L650.14 179.9L650.14 136.9zM687.38 373.4L724.62 394.9L724.62 437.9L687.38 459.4L650.14 437.9L650.14 394.9zM799.1 50.9L836.34 72.4L836.34 115.4L799.1 136.9L761.86 115.4L761.86 72.4zM761.86 244.4L799.1 265.9L799.1 308.9L761.86 330.4L724.62 308.9L724.62 265.9zM873.58 308.9L910.82 330.4L910.82 373.4L873.58 394.9L836.34 373.4L836.34 330.4zM836.34 373.4L873.58 394.9L873.58 437.9L836.34 459.4L799.1 437.9L799.1 394.9zM836.34 502.4L873.58 523.9L873.58 566.9L836.34 588.4L799.1 566.9L799.1 523.9zM873.58 566.9L910.82 588.4L910.82 631.4L873.58 652.9L836.34 631.4L836.34 588.4zM910.82 244.4L948.06 265.9L948.06 308.9L910.82 330.4L873.58 308.9L873.58 265.9zM985.3 244.4L1022.54 265.9L1022.54 308.9L985.3 330.4L948.06 308.9L948.06 265.9zM1022.54 308.9L1059.78 330.4L1059.78 373.4L1022.54 394.9L985.3 373.4L985.3 330.4zM985.3 502.4L1022.54 523.9L1022.54 566.9L985.3 588.4L948.06 566.9L948.06 523.9zM1097.02 179.9L1134.26 201.4L1134.26 244.4L1097.02 265.9L1059.78 244.4L1059.78 201.4zM1097.02 437.9L1134.26 459.4L1134.26 502.4L1097.02 523.9L1059.78 502.4L1059.78 459.4zM1171.5 50.9L1208.74 72.4L1208.74 115.4L1171.5 136.9L1134.26 115.4L1134.26 72.4zM1134.26 115.4L1171.5 136.9L1171.5 179.9L1134.26 201.4L1097.02 179.9L1097.02 136.9zM1171.5 179.9L1208.74 201.4L1208.74 244.4L1171.5 265.9L1134.26 244.4L1134.26 201.4zM1171.5 437.9L1208.74 459.4L1208.74 502.4L1171.5 523.9L1134.26 502.4L1134.26 459.4zM1134.26 502.4L1171.5 523.9L1171.5 566.9L1134.26 588.4L1097.02 566.9L1097.02 523.9zM1171.5 566.9L1208.74 588.4L1208.74 631.4L1171.5 652.9L1134.26 631.4L1134.26 588.4zM1245.98 566.9L1283.23 588.4L1283.23 631.4L1245.98 652.9L1208.74 631.4L1208.74 588.4zM1320.47 50.9L1357.71 72.4L1357.71 115.4L1320.47 136.9L1283.23 115.4L1283.23 72.4zM1320.47 437.9L1357.71 459.4L1357.71 502.4L1320.47 523.9L1283.23 502.4L1283.23 459.4zM1320.47 566.9L1357.71 588.4L1357.71 631.4L1320.47 652.9L1283.23 631.4L1283.23 588.4zM1357.71 115.4L1394.95 136.9L1394.95 179.9L1357.71 201.4L1320.47 179.9L1320.47 136.9zM1469.43 179.9L1506.67 201.4L1506.67 244.4L1469.43 265.9L1432.19 244.4L1432.19 201.4zM1469.43 437.9L1506.67 459.4L1506.67 502.4L1469.43 523.9L1432.19 502.4L1432.19 459.4z" stroke="url(#SvgjsLinearGradient3810)" stroke-width="2"></path></g><defs><mask id="SvgjsMask3808"><rect width="1440" height="560" fill="#ffffff"></rect></mask><linearGradient x1="15.28%" y1="-39.29%" x2="84.72%" y2="139.29%" gradientUnits="userSpaceOnUse" id="SvgjsLinearGradient3809"><stop stop-color="#0e2a47" offset="0"></stop><stop stop-color="rgba(36, 21, 21, 1)" offset="1"></stop></linearGradient><linearGradient x1="1219.9679999999998" y1="-220.02399999999997" x2="220.03199999999998" y2="780.024" gradientUnits="userSpaceOnUse" id="SvgjsLinearGradient3810"><stop stop-color="#0e2a47" offset="0"></stop><stop stop-color="rgba(83, 83, 83, 1)" offset="1"></stop></linearGradient></defs></svg>